<svg width="185" height="125" viewBox="0 0 185 125" fill="none" xmlns="http://www.w3.org/2000/svg">
<g id="Group 52">
<path id="Vector" fill-rule="evenodd" clip-rule="evenodd" d="M57.6844 1.69462L128.073 1.67578C132.528 1.68466 136.914 2.77746 140.852 4.85986C144.79 6.94227 148.163 9.95173 150.679 13.6285L163.055 32.3159C163.658 30.6393 164.289 28.7367 164.76 27.3803C165.702 24.3756 167.67 24.3756 169.469 24.3756L178.116 25.4494C183.551 26.3913 184.107 34.5199 178.116 36.4508L167.539 39.107L174.537 49.6846C177.24 53.763 178.116 57.1445 178.116 57.9451V100.171C178.116 101.085 177.93 101.99 177.568 102.831C177.207 103.671 176.679 104.429 176.016 105.059V116.004C176.008 117.937 175.236 119.788 173.869 121.154C172.501 122.52 170.649 123.289 168.716 123.294H158.543C156.612 123.287 154.762 122.516 153.397 121.151C152.031 119.785 151.261 117.935 151.253 116.004V106.962H33.1479V116.004C33.1429 117.936 32.3732 119.787 31.0071 121.154C29.641 122.52 27.7895 123.289 25.8576 123.294H15.685C13.7538 123.287 11.9038 122.516 10.5382 121.151C9.17259 119.785 8.40211 117.935 8.39466 116.004V105.059C7.73135 104.429 7.20306 103.671 6.84197 102.831C6.48088 101.99 6.29451 101.085 6.29421 100.171V57.9451C6.29421 57.0032 7.44334 52.2937 11.2769 46.8966L16.787 39.1824L5.99282 36.432C0.00231981 34.5011 0.558043 26.3348 5.99282 25.4306L14.6395 24.3568C16.4103 24.3568 18.3412 24.3568 19.349 27.3615C19.8765 28.8874 20.6206 31.0726 21.2328 32.8716L36.5199 11.4245C41.0316 5.11373 49.9514 1.67578 57.6468 1.67578L57.6844 1.69462ZM40.0426 36.6298H145.253C151.489 36.6298 153.994 32.1181 151.319 27.7571L145.027 17.9142C141.259 12.5265 135.985 9.11682 125.784 9.11682H60.0863C53.4459 9.11682 48.3596 8.96611 42.501 16.4542L33.7318 28.3128C30.9721 32.5419 32.79 36.6298 40.0426 36.6298ZM161.793 55.5432C166.069 55.3925 168.575 55.5432 170.609 58.8305C173.567 64.9152 171.683 72.2243 163.291 72.2243H134.657C130.616 72.2243 129.316 70.2463 132.076 67.4112L137.332 61.6279C141.617 56.9184 148.512 56.4192 161.821 55.6374L161.793 55.5432ZM22.2783 55.5432C17.9926 55.3925 15.4872 55.5432 13.4621 58.8305C10.5045 64.9152 12.3789 72.2243 20.7713 72.2243H49.4145C53.4459 72.2243 54.7457 70.2463 51.9954 67.4112L46.7301 61.6279C42.4445 56.9184 35.5592 56.4192 22.2407 55.6374L22.2783 55.5432Z" fill="#61676F"/>
<path id="Vector_2" d="M57.6848 0H128.036C132.805 0.0192296 137.5 1.18888 141.721 3.40969C145.902 5.59603 149.465 8.7996 152.082 12.7251L162.585 28.5585L163.159 26.8631C163.362 26.0813 163.733 25.3529 164.245 24.7284C164.757 24.1039 165.399 23.5982 166.126 23.2462C167.192 22.8301 168.337 22.6532 169.479 22.7281H169.583L178.324 23.8019H178.399C179.299 23.9436 180.161 24.2673 180.932 24.7531C181.703 25.2389 182.366 25.8767 182.883 26.6276C183.608 27.7175 184.025 28.9837 184.088 30.2916C184.157 31.6121 183.899 32.9291 183.335 34.1251C182.861 35.068 182.199 35.9033 181.389 36.5791C180.578 37.2548 179.638 37.7565 178.625 38.0529L178.503 38.1094L170.28 40.2004L175.931 48.7529C176.913 50.2501 177.769 51.8252 178.493 53.4624C179.203 54.8688 179.671 56.3844 179.878 57.9459V100.171C179.874 101.31 179.633 102.436 179.171 103.477C178.832 104.301 178.358 105.061 177.768 105.729V116.005C177.771 117.187 177.54 118.358 177.088 119.45C176.637 120.542 175.975 121.535 175.139 122.371C174.303 123.207 173.311 123.869 172.218 124.32C171.126 124.771 169.955 125.002 168.773 125H158.6C156.217 124.993 153.933 124.042 152.248 122.357C150.563 120.672 149.613 118.388 149.605 116.005V108.667H34.8248V116.005C34.8218 117.189 34.5857 118.36 34.13 119.453C33.6742 120.545 33.0078 121.537 32.1686 122.372C31.3385 123.208 30.3507 123.87 29.2625 124.321C28.1744 124.773 27.0076 125.003 25.8296 125H15.6571C14.4755 125.001 13.3052 124.769 12.2133 124.318C11.1214 123.866 10.1293 123.204 9.29376 122.368C8.45823 121.533 7.79571 120.54 7.3441 119.449C6.89249 118.357 6.66066 117.186 6.6619 116.005V105.729C6.08288 105.054 5.60965 104.295 5.25845 103.477C4.80571 102.434 4.5748 101.309 4.5803 100.171V57.9459C4.8328 55.8722 5.4347 53.8563 6.36049 51.9836C7.32739 49.8531 8.50432 47.8242 9.87379 45.9272L13.9617 40.2004L5.56929 38.1L5.46567 38.0435C4.45409 37.745 3.51437 37.2426 2.7044 36.567C1.89444 35.8915 1.23138 35.0573 0.756151 34.1157C0.195125 32.919 -0.0605115 31.6019 0.0120685 30.2822C0.0767154 28.976 0.489731 27.7109 1.20828 26.6182C1.72711 25.8678 2.39281 25.2305 3.16506 24.7448C3.93732 24.2591 4.80007 23.9351 5.70114 23.7925H5.77651L14.5174 22.7187H14.621C16.9946 22.7187 19.5566 22.7187 20.9317 26.8537C21.1578 27.4753 21.4309 28.3324 21.7606 29.2838L35.1639 10.4457C37.6399 7.138 40.9259 4.52351 44.7054 2.85397C48.7797 1.01384 53.1954 0.0510992 57.666 0.0282568L57.6848 0ZM128.073 3.35317H57.7225C53.7157 3.38615 49.7623 4.27574 46.1276 5.96225C42.8794 7.37763 40.0482 9.60229 37.9048 12.4237L20.7716 36.4987L19.6696 33.4658C19.3682 32.6464 19.0479 31.7139 18.7277 30.7908C18.4074 29.8677 18.0495 28.8317 17.7858 27.9086C17.2112 26.1284 15.9585 26.0813 14.7811 26.0813L6.23803 27.1268C5.80427 27.2019 5.38995 27.3631 5.01949 27.6009C4.64904 27.8387 4.32994 28.1483 4.08107 28.5114C3.69294 29.0996 3.47759 29.7849 3.45944 30.4894C3.37222 31.2358 3.50307 31.9916 3.83619 32.6652C4.0959 33.1874 4.45835 33.6517 4.90181 34.0304C5.34528 34.4092 5.86063 34.6945 6.417 34.8693L19.6036 38.1753L12.6618 47.924C11.4302 49.6368 10.3702 51.4667 9.49701 53.3871C8.77132 54.8293 8.26648 56.3724 7.99939 57.9647V100.19C8.00325 100.869 8.13757 101.54 8.395 102.168C8.67238 102.8 9.07261 103.37 9.57238 103.845L10.0716 104.344V116.024C10.0716 117.522 10.667 118.96 11.7268 120.02C12.7867 121.08 14.2242 121.675 15.723 121.675H25.8955C26.6343 121.674 27.3655 121.526 28.0469 121.241C28.7283 120.956 29.3465 120.538 29.8658 120.013C30.385 119.488 30.7951 118.865 31.0724 118.18C31.3496 117.495 31.4885 116.762 31.4811 116.024V105.258H152.987V116.005C152.986 117.492 153.573 118.92 154.618 119.978C155.664 121.036 157.085 121.639 158.572 121.656H168.745C170.234 121.641 171.657 121.039 172.704 119.981C173.752 118.923 174.34 117.494 174.339 116.005V104.353L174.858 103.854C175.365 103.373 175.769 102.792 176.044 102.149C176.315 101.526 176.45 100.851 176.44 100.171V57.9459C176.257 56.8524 175.921 55.7901 175.442 54.7905C174.802 53.3342 174.039 51.9351 173.162 50.6085L164.807 38.0529L177.693 34.8222C178.246 34.6525 178.76 34.3744 179.205 34.0041C179.649 33.6337 180.016 33.1786 180.283 32.6652C180.606 32.0042 180.752 31.2708 180.707 30.5365C180.68 29.832 180.462 29.1481 180.076 28.5585C179.827 28.1975 179.509 27.8893 179.14 27.6517C178.772 27.414 178.36 27.2517 177.928 27.1739L169.385 26.0719C168.749 26.0304 168.11 26.107 167.501 26.2979C167.208 26.4665 166.954 26.6972 166.759 26.9737C166.564 27.2503 166.432 27.5661 166.371 27.8992C166.126 28.6244 165.825 29.5004 165.495 30.4329C165.165 31.3654 164.92 32.1095 164.647 32.863L163.489 36.0372L149.285 14.5524C146.971 11.1048 143.826 8.29612 140.139 6.3861C136.422 4.41311 132.281 3.3723 128.073 3.35317ZM40.0429 34.9258H145.254C146.565 34.9751 147.866 34.6727 149.021 34.0498C149.528 33.732 149.956 33.3038 150.274 32.7971C150.53 32.3087 150.666 31.7661 150.669 31.2147C150.638 30.3071 150.361 29.4251 149.869 28.6621L143.605 18.8098C141.96 16.3451 139.709 14.344 137.068 12.9983C134.243 11.5948 130.598 10.7942 125.766 10.7942H59.7099C53.7476 10.7942 49.0852 10.7942 43.8482 17.4629L35.1074 29.2838C34.5532 30.047 34.2266 30.9516 34.1655 31.8928C34.1567 32.2757 34.2442 32.6546 34.4198 32.9949C34.6318 33.3808 34.9401 33.7052 35.3146 33.9368C36.7592 34.7066 38.3909 35.0558 40.0241 34.9446L40.0429 34.9258ZM145.254 38.3166H40.0429C37.7532 38.433 35.4798 37.8728 33.5061 36.706C32.6713 36.1737 31.9818 35.4422 31.4999 34.5773C31.0251 33.746 30.7812 32.8029 30.7935 31.8457C30.8552 30.2245 31.3888 28.6565 32.3288 27.334V27.2587L41.1261 15.3624C47.3898 7.36568 52.7492 7.36568 59.6628 7.36568H125.737C131.125 7.36568 135.232 8.30759 138.538 9.91824C141.716 11.5294 144.427 13.9293 146.412 16.8883L146.459 16.9354L152.695 26.8066C153.533 28.109 153.993 29.6189 154.023 31.1676C154.039 32.3104 153.746 33.4363 153.175 34.4266C152.583 35.4302 151.756 36.2742 150.764 36.8849C149.076 37.8566 147.153 38.3424 145.206 38.2884L145.254 38.3166ZM161.718 53.8486C163.664 53.6547 165.628 53.7884 167.53 54.2442C169.46 54.8281 171.085 56.1429 172.06 57.9082L172.117 58.0024V58.0589C173.065 59.9653 173.571 62.0614 173.595 64.1907C173.62 65.923 173.198 67.6324 172.371 69.1545C171.512 70.7275 170.186 71.9947 168.575 72.7809C166.921 73.526 165.123 73.8959 163.31 73.864H134.695C133.451 73.912 132.211 73.6802 131.068 73.1859C130.259 72.8481 129.593 72.2385 129.185 71.4622C128.832 70.6453 128.788 69.728 129.062 68.8814C129.429 67.867 130.022 66.9491 130.795 66.197L136.051 60.4042C138.462 57.7763 141.542 56.3258 145.828 55.4498C149.859 54.5927 154.946 54.2725 161.661 53.8957L161.718 53.8486ZM166.55 57.5032C165.005 57.16 163.416 57.0583 161.84 57.2018C155.294 57.6068 150.312 57.9082 146.506 58.7088C142.946 59.4623 140.44 60.5926 138.557 62.646L133.329 68.4575L133.273 68.5046C132.875 68.8926 132.555 69.353 132.331 69.861C132.328 69.9017 132.328 69.9426 132.331 69.9834C132.331 69.9834 132.406 70.0588 132.528 70.1341C133.218 70.3859 133.952 70.498 134.685 70.4638H163.319C164.616 70.4967 165.903 70.2393 167.087 69.7103C168.085 69.2432 168.91 68.4715 169.442 67.5062C169.977 66.4847 170.243 65.3436 170.214 64.1907C170.191 62.6052 169.824 61.0435 169.14 59.613C168.587 58.601 167.661 57.8442 166.559 57.5032H166.55ZM22.2033 57.2206C20.6273 57.0782 19.0388 57.1799 17.4938 57.522C16.392 57.8631 15.4662 58.6198 14.913 59.6319C14.2288 61.0624 13.8625 62.624 13.8392 64.2095C13.8139 65.3632 14.0829 66.5042 14.621 67.525C15.1503 68.4924 15.9755 69.2648 16.9757 69.7291C18.1589 70.2606 19.4468 70.5182 20.7433 70.4826H49.3866C50.1203 70.5158 50.8533 70.4038 51.5436 70.1529C51.666 70.0776 51.7414 70.0305 51.7414 70.0022C51.7448 69.9615 51.7448 69.9205 51.7414 69.8798C51.5391 69.3495 51.2315 68.8657 50.8372 68.4575H50.743L45.4777 62.6742C43.5939 60.6397 41.0979 59.4906 37.5375 58.7371C33.7699 57.9365 28.7401 57.6351 22.2033 57.23V57.2206ZM16.5519 54.263C18.4532 53.8066 20.4177 53.6728 22.3634 53.8674C29.0698 54.2442 34.156 54.5644 38.1968 55.4216C42.4825 56.2976 45.5625 57.7481 47.9644 60.376L53.2296 66.1687C54.0006 66.921 54.59 67.839 54.9533 68.8531C55.2325 69.699 55.1889 70.6183 54.8308 71.4339C54.4471 72.2038 53.8078 72.8164 53.0224 73.167C51.8759 73.6603 50.6339 73.892 49.3866 73.8452H20.7716C18.9613 73.875 17.1668 73.5052 15.5158 72.762C13.8904 71.9925 12.549 70.7302 11.6822 69.1545C10.8521 67.6331 10.4272 65.9237 10.4483 64.1907C10.4785 62.0742 10.9839 59.9915 11.9271 58.0966V58.0401V57.9459C12.9117 56.1851 14.5382 54.8725 16.4671 54.2819L16.5519 54.263Z" fill="#61676F"/>
</g>
</svg>
