<svg width="17" height="17" viewBox="0 0 17 17" fill="none" xmlns="http://www.w3.org/2000/svg">
<g id="arrow-left 1" clip-path="url(#clip0_1547_83)">
<g id="Group">
<g id="arrow-1-w_1_">
<path id="Vector" d="M7.06039 15.5328C6.78058 15.5288 6.5137 15.4144 6.31783 15.2145L0.31377 9.22104C-0.102174 8.80849 -0.104933 8.13683 0.307622 7.72086C0.309648 7.71879 0.311709 7.71673 0.31377 7.71471L6.31786 1.72127C6.76284 1.34019 7.4325 1.39199 7.81358 1.837C8.15368 2.23415 8.15368 2.81987 7.81358 3.21698L2.56267 8.46789L7.86661 13.7188C8.2779 14.1325 8.2779 14.8008 7.86661 15.2145C7.65544 15.4305 7.36221 15.5463 7.06039 15.5328Z" fill="white"/>
<path id="Vector_2" d="M15.9392 9.52869H1.08815C0.502289 9.52869 0.0273438 9.05375 0.0273438 8.46789C0.0273438 7.88203 0.502289 7.40709 1.08815 7.40709H15.9392C16.525 7.40709 17 7.88203 17 8.46789C17 9.05375 16.525 9.52869 15.9392 9.52869Z" fill="white"/>
</g>
</g>
</g>
<defs>
<clipPath id="clip0_1547_83">
<rect width="17" height="17" fill="white"/>
</clipPath>
</defs>
</svg>
