<svg width="51" height="50" viewBox="0 0 51 50" fill="none" xmlns="http://www.w3.org/2000/svg">
<g id="remove 1" clip-path="url(#clip0_791_8101)">
<g id="g1026">
<g id="g1028">
<g id="Clip path group">
<mask id="mask0_791_8101" style="mask-type:luminance" maskUnits="userSpaceOnUse" x="0" y="0" width="51" height="50">
<g id="clipPath1034">
<path id="path1032" d="M0.5 0H50.5V50H0.5V0Z" fill="white"/>
</g>
</mask>
<g mask="url(#mask0_791_8101)">
<g id="g1030">
<g id="g1036">
<path id="path1038" d="M25.5 48.5352L11.3885 29.4425C2.82735 17.8594 11.0965 1.46484 25.5 1.46484C39.9035 1.46484 48.1727 17.8594 39.6115 29.4425L25.5 48.5352Z" stroke="#9D9D9D" stroke-width="3.08594" stroke-miterlimit="10" stroke-linecap="round" stroke-linejoin="round"/>
</g>
<g id="g1040">
<path id="path1042" d="M37.2188 19.043C37.2188 25.515 31.9721 30.7617 25.5 30.7617C19.0279 30.7617 13.7812 25.515 13.7812 19.043C13.7812 12.5709 19.0279 7.32422 25.5 7.32422C31.9721 7.32422 37.2188 12.5709 37.2188 19.043Z" stroke="#9D9D9D" stroke-width="3.08594" stroke-miterlimit="10" stroke-linecap="round" stroke-linejoin="round"/>
</g>
<g id="g1044">
<path id="path1046" d="M21.5938 22.9492L29.4063 15.1367" stroke="#9D9D9D" stroke-width="3.08594" stroke-miterlimit="10" stroke-linecap="round" stroke-linejoin="round"/>
</g>
<g id="g1048">
<path id="path1050" d="M29.4063 22.9492L21.5938 15.1367" stroke="#9D9D9D" stroke-width="3.08594" stroke-miterlimit="10" stroke-linecap="round" stroke-linejoin="round"/>
</g>
</g>
</g>
</g>
</g>
</g>
</g>
<defs>
<clipPath id="clip0_791_8101">
<rect width="50" height="50" fill="white" transform="translate(0.5)"/>
</clipPath>
</defs>
</svg>
