<svg width="30" height="30" viewBox="0 0 30 30" fill="none" xmlns="http://www.w3.org/2000/svg">
<g id="fi-rr-cross-circle" clip-path="url(#clip0_864_7199)">
<path id="Vector" d="M19.9999 10.0003C19.7655 9.76592 19.4476 9.63428 19.1162 9.63428C18.7847 9.63428 18.4668 9.76592 18.2324 10.0003L14.9999 13.2328L11.7674 10.0003C11.5317 9.77256 11.2159 9.64657 10.8882 9.64942C10.5604 9.65227 10.2469 9.78373 10.0152 10.0155C9.7834 10.2472 9.65194 10.5608 9.6491 10.8885C9.64625 11.2163 9.77224 11.532 9.99994 11.7678L13.2324 15.0003L9.99994 18.2328C9.77224 18.4685 9.64625 18.7843 9.6491 19.112C9.65194 19.4398 9.7834 19.7533 10.0152 19.985C10.2469 20.2168 10.5604 20.3483 10.8882 20.3511C11.2159 20.3539 11.5317 20.228 11.7674 20.0003L14.9999 16.7678L18.2324 20.0003C18.4682 20.228 18.7839 20.3539 19.1117 20.3511C19.4394 20.3483 19.7529 20.2168 19.9847 19.985C20.2165 19.7533 20.3479 19.4398 20.3508 19.112C20.3536 18.7843 20.2276 18.4685 19.9999 18.2328L16.7674 15.0003L19.9999 11.7678C20.2343 11.5334 20.3659 11.2155 20.3659 10.884C20.3659 10.5526 20.2343 10.2347 19.9999 10.0003Z" fill="white"/>
<path id="Vector_2" d="M15 0C12.0333 0 9.13319 0.879735 6.66645 2.52796C4.19972 4.17618 2.27713 6.51886 1.14181 9.25975C0.00649929 12.0006 -0.290551 15.0166 0.288228 17.9264C0.867006 20.8361 2.29562 23.5088 4.3934 25.6066C6.49119 27.7044 9.16394 29.133 12.0737 29.7118C14.9834 30.2906 17.9994 29.9935 20.7403 28.8582C23.4811 27.7229 25.8238 25.8003 27.472 23.3336C29.1203 20.8668 30 17.9667 30 15C29.9957 11.0231 28.414 7.21026 25.6019 4.39815C22.7897 1.58604 18.9769 0.00430135 15 0V0ZM15 27.5C12.5277 27.5 10.111 26.7669 8.05538 25.3934C5.99976 24.0199 4.39761 22.0676 3.45151 19.7835C2.50542 17.4995 2.25788 14.9861 2.74019 12.5614C3.22251 10.1366 4.41302 7.90932 6.16117 6.16117C7.90933 4.41301 10.1366 3.2225 12.5614 2.74018C14.9861 2.25787 17.4995 2.50541 19.7836 3.45151C22.0676 4.3976 24.0199 5.99976 25.3934 8.05537C26.7669 10.111 27.5 12.5277 27.5 15C27.4964 18.3141 26.1782 21.4914 23.8348 23.8348C21.4914 26.1782 18.3141 27.4964 15 27.5Z" fill="white"/>
</g>
<defs>
<clipPath id="clip0_864_7199">
<rect width="30" height="30" fill="white"/>
</clipPath>
</defs>
</svg>
