<svg width="15" height="15" viewBox="0 0 15 15" fill="none" xmlns="http://www.w3.org/2000/svg">
<g id="fluent:comment-24-regular">
<path id="Vector" d="M3.28125 11.25C2.74253 11.25 2.22587 11.036 1.84494 10.6551C1.46401 10.2741 1.25 9.75747 1.25 9.21875V3.90625C1.25 3.36753 1.46401 2.85087 1.84494 2.46994C2.22587 2.08901 2.74253 1.875 3.28125 1.875H11.7188C11.9855 1.875 12.2496 1.92754 12.4961 2.02962C12.7425 2.1317 12.9664 2.28132 13.1551 2.46994C13.3437 2.65856 13.4933 2.88248 13.5954 3.12892C13.6975 3.37537 13.75 3.6395 13.75 3.90625V9.21875C13.75 9.4855 13.6975 9.74963 13.5954 9.99607C13.4933 10.2425 13.3437 10.4664 13.1551 10.6551C12.9664 10.8437 12.7425 10.9933 12.4961 11.0954C12.2496 11.1975 11.9855 11.25 11.7188 11.25H8.1325L5 13.5937C4.88393 13.6806 4.74597 13.7335 4.60157 13.7464C4.45717 13.7593 4.31201 13.7318 4.18235 13.667C4.05269 13.6021 3.94363 13.5025 3.86739 13.3791C3.79114 13.2558 3.75071 13.1137 3.75062 12.9687V11.25H3.28125ZM7.82125 10.3125H11.7188C12.0088 10.3125 12.287 10.1973 12.4921 9.99215C12.6973 9.78703 12.8125 9.50883 12.8125 9.21875V3.90625C12.8125 3.61617 12.6973 3.33797 12.4921 3.13285C12.287 2.92773 12.0088 2.8125 11.7188 2.8125H3.28125C2.99117 2.8125 2.71297 2.92773 2.50785 3.13285C2.30273 3.33797 2.1875 3.61617 2.1875 3.90625V9.21875C2.1875 9.8225 2.6775 10.3125 3.28125 10.3125H4.68688V12.6562L7.82125 10.3125Z" fill="white"/>
</g>
</svg>
