<svg width="16" height="16" viewBox="0 0 16 16" fill="none" xmlns="http://www.w3.org/2000/svg">
<g id="fluent:thumb-dislike-20-regular">
<path id="Vector" d="M8.04159 14.1649C8.3136 14.9465 9.3472 15.3065 9.9856 14.6369C10.1168 14.5009 10.2464 14.3529 10.3344 14.2217C10.5904 13.8377 10.6984 13.3313 10.7376 12.8377C10.7776 12.3353 10.7504 11.7961 10.6992 11.3081C10.6534 10.8833 10.5891 10.4608 10.5064 10.0417L10.4984 10.0001H11.2048C11.5564 10.0001 11.9037 9.92292 12.2222 9.77393C12.5406 9.62495 12.8225 9.40782 13.0477 9.13789C13.273 8.86796 13.4362 8.55183 13.5259 8.21186C13.6155 7.87188 13.6293 7.51637 13.5664 7.17046L13.0192 4.16086C12.9299 3.66995 12.7395 3.20296 12.4602 2.78953C12.1808 2.37609 11.8186 2.02525 11.3964 1.75926C10.9743 1.49326 10.5014 1.31793 10.0079 1.24439C9.51438 1.17085 9.01096 1.20071 8.52959 1.33206L4.04959 2.55366C3.69146 2.65163 3.36767 2.84735 3.11448 3.11891C2.86128 3.39047 2.68868 3.72716 2.61599 4.09126L2.33359 5.50326C2.11119 6.61446 2.96079 7.54966 3.86399 7.90726C4.12239 8.00886 4.3552 8.13846 4.536 8.29926C5.9016 9.50966 6.396 10.4777 7.244 12.1785C7.5272 12.7465 7.8184 13.5193 8.0424 14.1641L8.04159 14.1649ZM9.6136 9.69686V9.69846L9.6152 9.70406L9.6208 9.72886C9.65766 9.88361 9.69126 10.0391 9.7216 10.1953C9.7824 10.5073 9.8552 10.9313 9.90319 11.3921C9.95199 11.8537 9.9752 12.3393 9.94 12.7745C9.9048 13.2185 9.812 13.5625 9.668 13.7777C9.6208 13.8497 9.5312 13.9553 9.4072 14.0841C9.248 14.2513 8.9048 14.2121 8.7976 13.9025C8.5712 13.2513 8.2664 12.4385 7.9592 11.8217C7.1056 10.1097 6.5544 9.02086 5.0664 7.70086C4.79685 7.47042 4.48936 7.28852 4.1576 7.16326C3.45359 6.88486 2.99999 6.24406 3.11759 5.66006L3.39919 4.24806C3.44295 4.02945 3.54674 3.82735 3.69892 3.66443C3.85111 3.5015 4.04567 3.3842 4.2608 3.32566L8.7408 2.10406C9.11513 2.00201 9.50659 1.97887 9.89035 2.03611C10.2741 2.09336 10.6418 2.22973 10.97 2.43658C11.2983 2.64344 11.58 2.91626 11.7972 3.23774C12.0145 3.55921 12.1625 3.92233 12.232 4.30406L12.7792 7.31366C12.8212 7.54427 12.8119 7.78128 12.7522 8.00793C12.6924 8.23457 12.5836 8.44533 12.4334 8.62528C12.2832 8.80523 12.0953 8.94999 11.883 9.04931C11.6707 9.14863 11.4392 9.2001 11.2048 9.20006H10.0008C9.9401 9.2002 9.88024 9.21415 9.82574 9.24085C9.77123 9.26755 9.72352 9.3063 9.68621 9.35417C9.6489 9.40204 9.62298 9.45777 9.61039 9.51714C9.59781 9.57652 9.59891 9.63797 9.6136 9.69686Z" fill="white"/>
</g>
</svg>
