<svg width="12" height="11" viewBox="0 0 12 11" fill="none" xmlns="http://www.w3.org/2000/svg">
<g id="pencil 1" clip-path="url(#clip0_1547_3417)">
<path id="Vector" d="M7.29309 1.84766L1.24073 7.90045C1.21028 7.93099 1.1883 7.96955 1.17783 8.01099L0.50698 10.7036C0.486913 10.7847 0.510732 10.8709 0.569885 10.93C0.614643 10.9748 0.675629 10.9996 0.738011 10.9996C0.757118 10.9996 0.776662 10.9972 0.795682 10.9924L3.48831 10.3215C3.53028 10.311 3.56841 10.2891 3.59886 10.2587L9.65174 4.2063L7.29309 1.84766Z" fill="#202020"/>
<path id="Vector_2" d="M11.1506 1.02202L10.4769 0.348292C10.0266 -0.101992 9.24183 -0.101556 8.79207 0.348292L7.9668 1.17357L10.3254 3.53213L11.1506 2.70685C11.3756 2.48202 11.4994 2.18276 11.4994 1.86448C11.4994 1.5462 11.3756 1.24694 11.1506 1.02202Z" fill="#202020"/>
</g>
<defs>
<clipPath id="clip0_1547_3417">
<rect width="11" height="11" fill="white" transform="translate(0.5)"/>
</clipPath>
</defs>
</svg>
