<svg width="24" height="24" viewBox="0 0 24 24" fill="none" xmlns="http://www.w3.org/2000/svg">
<g id="heart (2) 1">
<g id="Layer_2_00000163787779129348387700000017400235220653464224_">
<g id="Social_Icon">
<path id="Heart" d="M20.8501 14.0789L20.8473 14.0823C20.3857 14.642 19.0345 15.8614 17.4095 17.2502C15.8186 18.6098 14.0552 20.0569 12.846 21.0393L12.8447 21.0403C12.3501 21.4436 11.6452 21.4436 11.1506 21.0403L11.1493 21.0393C9.94032 20.0571 8.17813 18.61 6.58772 17.2503C4.96383 15.8619 3.61141 14.6416 3.14662 14.0806L3.14614 14.08C1.63513 12.2589 1 10.6164 1 8.87793C1 7.12637 1.59642 5.55751 2.63734 4.42872C3.69454 3.28852 5.12982 2.65918 6.70313 2.65918C7.86223 2.65918 8.91321 3.02199 9.85803 3.75174C10.365 4.14865 10.8111 4.61209 11.1782 5.13249L11.9877 6.28005L12.8073 5.13969C13.1856 4.61343 13.631 4.14435 14.1336 3.75096C15.0753 3.01934 16.1298 2.65918 17.2922 2.65918C18.8709 2.65918 20.3052 3.28899 21.3567 4.42739C22.3954 5.5581 22.9953 7.12371 22.9953 8.87793L22.9953 8.88024C22.9993 10.6168 22.3652 12.2581 20.8501 14.0789Z" stroke="white" stroke-width="2"/>
</g>
</g>
</g>
</svg>
