<svg width="22" height="22" viewBox="0 0 22 22" fill="none" xmlns="http://www.w3.org/2000/svg">
<g id="heart (2) 1">
<g id="Layer_2_00000163787779129348387700000017400235220653464224_">
<g id="Social_Icon">
<path id="Heart" d="M19.0485 12.8526L19.0457 12.8559C18.6282 13.3621 17.3962 14.4747 15.9046 15.7495C14.447 16.9952 12.8312 18.3212 11.723 19.2215L11.7217 19.2226C11.2989 19.5672 10.6968 19.5672 10.274 19.2226L10.2727 19.2215C9.16473 18.3214 7.55 16.9954 6.09289 15.7496C4.6023 14.4752 3.36903 13.3617 2.94858 12.8542L2.9481 12.8537C1.57224 11.1955 1 9.70799 1 8.13831C1 6.5516 1.54017 5.1343 2.47875 4.11644C3.43204 3.08835 4.72552 2.52112 6.14453 2.52112C7.18797 2.52112 8.13347 2.84719 8.9853 3.50502C9.44385 3.86406 9.84699 4.28299 10.1786 4.75302L10.9881 5.90059L11.8077 4.76022C12.1501 4.2839 12.5529 3.8597 13.0072 3.50417C13.8559 2.8449 14.8044 2.52112 15.8512 2.52112C17.2752 2.52112 18.5677 3.08882 19.5157 4.11511C20.4525 5.13488 20.9957 6.54932 20.9957 8.13831L20.9957 8.14062C20.9993 9.7084 20.4281 11.1947 19.0485 12.8526Z" fill="white" stroke="white" stroke-width="2"/>
</g>
</g>
</g>
</svg>
