<svg width="16" height="16" viewBox="0 0 16 16" fill="none" xmlns="http://www.w3.org/2000/svg">
<g id="fluent:thumb-like-20-regular">
<path id="Vector" d="M8.0416 1.83499C8.3136 1.05339 9.3472 0.693392 9.9856 1.36299C10.1168 1.49899 10.2464 1.64619 10.3344 1.77819C10.5904 2.16219 10.6984 2.66859 10.7376 3.16219C10.7776 3.66379 10.7504 4.20299 10.6992 4.69179C10.6531 5.11649 10.5887 5.53901 10.5064 5.95819L10.4984 5.99979H11.2048C11.5564 5.99974 11.9037 6.07693 12.2222 6.22592C12.5406 6.3749 12.8225 6.59204 13.0477 6.86197C13.273 7.13189 13.4363 7.44802 13.5259 7.788C13.6155 8.12797 13.6293 8.48348 13.5664 8.82939L13.0192 11.8382C12.93 12.3292 12.7397 12.7963 12.4604 13.2098C12.1811 13.6233 11.8188 13.9742 11.3967 14.2403C10.9745 14.5064 10.5016 14.6818 10.0081 14.7554C9.5145 14.829 9.01102 14.7991 8.5296 14.6678L4.0496 13.4462C3.69132 13.3484 3.36736 13.1527 3.11402 12.8811C2.86067 12.6095 2.68795 12.2728 2.6152 11.9086L2.3328 10.4966C2.1104 9.38539 2.96 8.44939 3.8632 8.09259C4.10807 8.00153 4.33541 7.86892 4.5352 7.70059C5.9008 6.48939 6.3952 5.52219 7.2432 3.82059C7.5264 3.25259 7.8176 2.47979 8.0416 1.83499ZM9.6136 6.30299V6.30139L9.6152 6.29579L9.6208 6.27099C9.65779 6.11601 9.6914 5.96024 9.7216 5.80379C9.7824 5.49339 9.8552 5.06779 9.9032 4.60779C9.952 4.14619 9.9752 3.66059 9.94 3.22539C9.9048 2.78059 9.812 2.43739 9.668 2.22139C9.58909 2.11269 9.5019 2.01025 9.4072 1.91499C9.248 1.74859 8.9048 1.78699 8.7976 2.09739C8.5712 2.74859 8.2664 3.56139 7.9592 4.17739C7.1056 5.89019 6.5544 6.97899 5.0664 8.29899C4.7944 8.54059 4.4712 8.71259 4.1576 8.83659C3.4536 9.11499 3 9.75499 3.1176 10.3398L3.3992 11.7518C3.44295 11.9704 3.54674 12.1725 3.69893 12.3354C3.85111 12.4983 4.04568 12.6157 4.2608 12.6742L8.7408 13.8958C9.11514 13.9978 9.5066 14.021 9.89035 13.9637C10.2741 13.9065 10.6418 13.7701 10.97 13.5633C11.2983 13.3564 11.58 13.0836 11.7972 12.7621C12.0145 12.4406 12.1625 12.0775 12.232 11.6958L12.7792 8.68619C12.8212 8.45558 12.8119 8.21858 12.7522 7.99193C12.6924 7.76528 12.5836 7.55453 12.4334 7.37457C12.2832 7.19462 12.0953 7.04987 11.883 6.95054C11.6707 6.85122 11.4392 6.79976 11.2048 6.79979H10.0008C9.94011 6.79965 9.88025 6.78571 9.82574 6.75901C9.77124 6.73231 9.72353 6.69355 9.68622 6.64569C9.64891 6.59782 9.62298 6.54208 9.6104 6.48271C9.59782 6.42334 9.59891 6.36188 9.6136 6.30299Z" fill="white"/>
</g>
</svg>
