<svg width="22" height="22" viewBox="0 0 22 22" fill="none" xmlns="http://www.w3.org/2000/svg">
<g id="logout 1" clip-path="url(#clip0_2097_1192)">
<path id="Vector" d="M21.3119 10.3125H12.6037C12.2242 10.3125 11.9163 10.0045 11.9163 9.62498C11.9163 9.24549 12.2242 8.9375 12.6037 8.9375H21.3119C21.6913 8.9375 21.9993 9.24549 21.9993 9.62498C21.9993 10.0045 21.6913 10.3125 21.3119 10.3125Z" fill="white"/>
<path id="Vector_2" d="M17.8744 13.7494C17.6984 13.7494 17.5225 13.6825 17.3885 13.5478C17.12 13.2791 17.12 12.8438 17.3885 12.5752L20.3402 9.62372L17.3885 6.67206C17.12 6.40351 17.12 5.96813 17.3885 5.69958C17.6573 5.43087 18.0926 5.43087 18.3612 5.69958L21.7986 9.13698C22.0671 9.40552 22.0671 9.8409 21.7986 10.1094L18.3612 13.5468C18.2264 13.6825 18.0505 13.7494 17.8744 13.7494Z" fill="white"/>
<path id="Vector_3" d="M7.33316 21.9993C7.13695 21.9993 6.95082 21.9718 6.76485 21.914L1.2484 20.0762C0.497818 19.814 0 19.1146 0 18.3328V1.83333C0 0.822255 0.822255 0 1.83333 0C2.02937 0 2.21551 0.027526 2.40164 0.0852635L7.91792 1.92313C8.66867 2.1853 9.16632 2.88469 9.16632 3.6665V20.166C9.16632 21.1771 8.34424 21.9993 7.33316 21.9993ZM1.83333 1.37496C1.58123 1.37496 1.37496 1.58123 1.37496 1.83333V18.3328C1.37496 18.528 1.50604 18.7095 1.69302 18.7746L7.18361 20.6042C7.22306 20.617 7.27442 20.6244 7.33316 20.6244C7.58526 20.6244 7.79137 20.4181 7.79137 20.166V3.6665C7.79137 3.4713 7.66028 3.28986 7.47331 3.22474L1.98271 1.3951C1.94327 1.38234 1.89191 1.37496 1.83333 1.37496Z" fill="white"/>
<path id="Vector_4" d="M13.9787 7.33316C13.5992 7.33316 13.2912 7.02517 13.2912 6.64568V2.52081C13.2912 1.88922 12.7771 1.37496 12.1455 1.37496H1.83335C1.45386 1.37496 1.14587 1.06697 1.14587 0.687478C1.14587 0.307989 1.45386 0 1.83335 0H12.1455C13.5361 0 14.6662 1.13024 14.6662 2.52081V6.64568C14.6662 7.02517 14.3582 7.33316 13.9787 7.33316Z" fill="white"/>
<path id="Vector_5" d="M12.1455 19.2492H8.47886C8.09937 19.2492 7.79138 18.9412 7.79138 18.5617C7.79138 18.1822 8.09937 17.8742 8.47886 17.8742H12.1455C12.7771 17.8742 13.2912 17.36 13.2912 16.7284V12.6035C13.2912 12.224 13.5992 11.916 13.9787 11.916C14.3582 11.916 14.6662 12.224 14.6662 12.6035V16.7284C14.6662 18.1189 13.5361 19.2492 12.1455 19.2492Z" fill="white"/>
</g>
<defs>
<clipPath id="clip0_2097_1192">
<rect width="22" height="22" fill="white"/>
</clipPath>
</defs>
</svg>
