<svg width="4" height="16" viewBox="0 0 4 16" fill="none" xmlns="http://www.w3.org/2000/svg">
<path id="Vector" d="M1.16031 8.83969L1.33709 8.66291L1.16031 8.83969C1.32639 9.00577 1.53798 9.11886 1.76833 9.16468C1.99868 9.2105 2.23745 9.18699 2.45444 9.09711L2.35877 8.86614L2.45444 9.09711C2.67142 9.00723 2.85689 8.85502 2.98737 8.65974C3.11786 8.46446 3.1875 8.23487 3.1875 8C3.1875 7.68506 3.06239 7.38301 2.83969 7.16031C2.61699 6.93761 2.31494 6.8125 2 6.8125C1.76514 6.8125 1.53554 6.88215 1.34026 7.01263C1.14498 7.14311 0.992773 7.32858 0.902894 7.54556C0.813015 7.76255 0.789498 8.00132 0.835318 8.23167C0.881138 8.46202 0.994236 8.67362 1.16031 8.83969ZM2.98737 14.6597C3.11786 14.4645 3.1875 14.2349 3.1875 14C3.1875 13.6851 3.06239 13.383 2.83969 13.1603C2.61699 12.9376 2.31494 12.8125 2 12.8125C1.76514 12.8125 1.53554 12.8821 1.34026 13.0126C1.14498 13.1431 0.992773 13.3286 0.902894 13.5456C0.813015 13.7626 0.789498 14.0013 0.835318 14.2317C0.881138 14.462 0.994236 14.6736 1.16031 14.8397C1.32639 15.0058 1.53798 15.1189 1.76833 15.1647C1.99868 15.2105 2.23745 15.187 2.45444 15.0971C2.67142 15.0072 2.85689 14.855 2.98737 14.6597ZM2 3.1875C2.23487 3.1875 2.46446 3.11786 2.65974 2.98737C2.85502 2.85689 3.00723 2.67142 3.09711 2.45444C3.18699 2.23745 3.2105 1.99868 3.16468 1.76833C3.11886 1.53798 3.00577 1.32639 2.83969 1.16031C2.67362 0.994236 2.46202 0.881138 2.23167 0.835318C2.00132 0.789498 1.76255 0.813014 1.54556 0.902893C1.32858 0.992773 1.14311 1.14498 1.01263 1.34026C0.882146 1.53554 0.8125 1.76514 0.8125 2C0.8125 2.31495 0.937612 2.61699 1.16031 2.83969C1.38301 3.06239 1.68506 3.1875 2 3.1875Z" fill="#202020" stroke="#202020" stroke-width="0.5"/>
</svg>
