<svg width="48" height="48" viewBox="0 0 48 48" fill="none" xmlns="http://www.w3.org/2000/svg">
<g id="&#208;&#161;&#209;&#130;&#209;&#128;&#208;&#181;&#208;&#187;&#208;&#186;&#208;&#176; &#208;&#189;&#208;&#176;&#208;&#183;&#208;&#176;&#208;&#180;">
<path id="Vector" d="M22.2825 14.8039C22.0983 15.0796 22 15.4037 22 15.7353C22 16.1799 22.1766 16.6063 22.491 16.9207C22.8054 17.2351 23.2318 17.4118 23.6765 17.4118C24.008 17.4118 24.3322 17.3134 24.6079 17.1292C24.8836 16.945 25.0984 16.6832 25.2253 16.3769C25.3522 16.0705 25.3854 15.7334 25.3207 15.4082C25.256 15.083 25.0964 14.7843 24.8619 14.5499C24.6275 14.3154 24.3287 14.1557 24.0035 14.091C23.6783 14.0264 23.3412 14.0595 23.0349 14.1864C22.7286 14.3133 22.4667 14.5282 22.2825 14.8039ZM23.6765 31C23.3449 31 23.0208 31.0983 22.7451 31.2825C22.4694 31.4667 22.2545 31.7286 22.1276 32.0349C22.0007 32.3412 21.9675 32.6783 22.0322 33.0035C22.0969 33.3287 22.2566 33.6275 22.491 33.8619C22.7255 34.0964 23.0242 34.256 23.3494 34.3207C23.6746 34.3854 24.0117 34.3522 24.318 34.2253C24.6244 34.0984 24.8862 33.8836 25.0704 33.6079C25.2546 33.3322 25.3529 33.008 25.3529 32.6765C25.3529 32.2318 25.1763 31.8054 24.8619 31.491C24.5475 31.1766 24.1211 31 23.6765 31ZM23.6765 25.8824C24.008 25.8824 24.3322 25.784 24.6079 25.5998C24.8836 25.4156 25.0984 25.1538 25.2253 24.8474C25.3522 24.5411 25.3854 24.204 25.3207 23.8788C25.256 23.5536 25.0964 23.2549 24.8619 23.0204C24.6275 22.786 24.3287 22.6263 24.0035 22.5616C23.6783 22.4969 23.3412 22.5301 23.0349 22.657C22.7286 22.7839 22.4667 22.9988 22.2825 23.2745C22.0983 23.5502 22 23.8743 22 24.2059C22 24.6505 22.1766 25.0769 22.491 25.3913C22.8054 25.7057 23.2318 25.8824 23.6765 25.8824Z" fill="white" stroke="white" stroke-width="0.705882"/>
</g>
</svg>
