<svg width="24" height="23" viewBox="0 0 24 23" fill="none" xmlns="http://www.w3.org/2000/svg">
<g id="quotation-marks-in-speech-bubble 1" clip-path="url(#clip0_864_6237)">
<g id="Group">
<path id="Vector" d="M11.9996 0C5.64841 0 0.5 4.705 0.5 10.5101C0.5 13.4535 1.82749 16.1107 3.9601 18.0191C3.49247 20.8157 0.474868 21.9492 0.682205 22.7195C3.23128 23.8112 8.3375 21.4076 9.58421 20.7841C10.3642 20.9365 11.1711 21.021 11.9996 21.021C18.3507 21.021 23.5 16.316 23.5 10.5101C23.5 4.70407 18.3507 0 11.9996 0ZM11.1846 10.9477C11.1846 13.8056 9.96299 15.4092 7.55573 15.7131C7.55034 15.714 7.54675 15.714 7.54137 15.714C7.51534 15.714 7.48661 15.7038 7.46777 15.6852C7.44353 15.6638 7.42917 15.6313 7.42917 15.5978V14.1457C7.42917 14.1029 7.45161 14.0639 7.48661 14.0444C8.58433 13.4247 9.13274 12.4491 9.16057 11.0647H7.54137C7.48033 11.0647 7.42917 11.0127 7.42917 10.9486V7.29442C7.42917 7.23031 7.48033 7.17828 7.54137 7.17828H11.0724C11.1334 7.17828 11.1846 7.23031 11.1846 7.29442V10.9477ZM17.4361 10.9477C17.4361 13.7619 16.3545 15.1872 13.8162 15.7121C13.809 15.7131 13.8019 15.714 13.7947 15.714C13.7686 15.714 13.7435 15.7047 13.7229 15.688C13.6968 15.6666 13.6825 15.6322 13.6825 15.5978V14.1457C13.6825 14.1029 13.7049 14.0639 13.7399 14.0444C14.8376 13.4247 15.386 12.4491 15.4139 11.0647H13.7947C13.7336 11.0647 13.6825 11.0127 13.6825 10.9486V7.29442C13.6825 7.23031 13.7336 7.17828 13.7947 7.17828H17.3239C17.3867 7.17828 17.4361 7.23031 17.4361 7.29442V10.9477Z" fill="white"/>
</g>
</g>
<defs>
<clipPath id="clip0_864_6237">
<rect width="23" height="23" fill="white" transform="translate(0.5)"/>
</clipPath>
</defs>
</svg>
