<svg width="28" height="28" viewBox="0 0 28 28" fill="none" xmlns="http://www.w3.org/2000/svg">
<g id="free-icon-smile-2691107 2">
<path id="Vector" d="M14 2C11.6266 2 9.30655 2.70379 7.33316 4.02236C5.35977 5.34094 3.8217 7.21508 2.91345 9.4078C2.0052 11.6005 1.76756 14.0133 2.23058 16.3411C2.6936 18.6689 3.83649 20.807 5.51472 22.4853C7.19295 24.1635 9.33115 25.3064 11.6589 25.7694C13.9867 26.2324 16.3995 25.9948 18.5922 25.0865C20.7849 24.1783 22.6591 22.6402 23.9776 20.6668C25.2962 18.6934 26 16.3734 26 14C26 12.4241 25.6896 10.8637 25.0866 9.4078C24.4835 7.95189 23.5996 6.62902 22.4853 5.51472C21.371 4.40041 20.0481 3.5165 18.5922 2.91345C17.1363 2.31039 15.5759 2 14 2ZM7.4 12.2C7.24087 12.2 7.08826 12.1368 6.97574 12.0243C6.86322 11.9117 6.8 11.7591 6.8 11.6C6.8 10.184 7.952 8.6 9.5 8.6C11.048 8.6 12.2 10.184 12.2 11.6C12.2 11.7591 12.1368 11.9117 12.0243 12.0243C11.9117 12.1368 11.7591 12.2 11.6 12.2C11.4409 12.2 11.2883 12.1368 11.1757 12.0243C11.0632 11.9117 11 11.7591 11 11.6C11 10.784 10.328 9.8 9.5 9.8C8.672 9.8 8 10.784 8 11.6C8 11.7591 7.93679 11.9117 7.82427 12.0243C7.71175 12.1368 7.55913 12.2 7.4 12.2ZM19.97 17.192C19.5033 18.3898 18.681 19.4159 17.6137 20.1325C16.5464 20.849 15.2853 21.2215 14 21.2C12.7147 21.2215 11.4536 20.849 10.3863 20.1325C9.31901 19.4159 8.49672 18.3898 8.03 17.192C7.97988 17.0408 7.99186 16.8759 8.06331 16.7336C8.13476 16.5912 8.25983 16.4831 8.411 16.433C8.56218 16.3829 8.72707 16.3949 8.86941 16.4663C9.01175 16.5378 9.11988 16.6628 9.17 16.814C9.54673 17.7794 10.2135 18.6042 11.0786 19.1748C11.9436 19.7453 12.9643 20.0337 14 20C15.0364 20.0332 16.0576 19.744 16.9227 19.1723C17.7879 18.6006 18.4542 17.7745 18.83 16.808C18.8809 16.6568 18.9898 16.5321 19.1327 16.4612C19.2756 16.3903 19.4408 16.3791 19.592 16.43C19.7432 16.4809 19.8679 16.5898 19.9388 16.7327C20.0097 16.8756 20.0209 17.0408 19.97 17.192ZM20.6 12.2C20.4409 12.2 20.2883 12.1368 20.1757 12.0243C20.0632 11.9117 20 11.7591 20 11.6C20 10.784 19.328 9.8 18.5 9.8C17.672 9.8 17 10.784 17 11.6C17 11.7591 16.9368 11.9117 16.8243 12.0243C16.7117 12.1368 16.5591 12.2 16.4 12.2C16.2409 12.2 16.0883 12.1368 15.9757 12.0243C15.8632 11.9117 15.8 11.7591 15.8 11.6C15.8 10.184 16.952 8.6 18.5 8.6C20.048 8.6 21.2 10.184 21.2 11.6C21.2 11.7591 21.1368 11.9117 21.0243 12.0243C20.9117 12.1368 20.7591 12.2 20.6 12.2Z" fill="#C6C6C6"/>
</g>
</svg>
